<svg width="26" height="13" viewBox="0 0 26 13" fill="none" xmlns="http://www.w3.org/2000/svg">
<path d="M7.42665 1.45168L7.42725 1.45228L6.36829 2.51496L6.01412 2.16202L4.42567 3.75604L4.77984 4.10898L2.66191 6.23433L2.30773 5.8814L2.04299 6.14707L1.69129 6.5L2.04299 6.85293L2.30773 7.1186L2.6619 6.76567L3.72087 7.82835L3.3667 8.18128L4.95515 9.7753L5.30932 9.42236L7.42725 11.5477L7.42665 11.5483L7.33826 11.46L7.27899 11.5193L7.36725 11.6075L7.12963 11.8443L7.04191 11.7567L6.68629 12.1126L7.04002 12.466L6.85996 12.6463L6.53463 12.3213L6.24053 12.6157L6.21212 12.5873L6.15285 12.6466L4.87994 11.375L5.23331 11.0213L3.28134 9.07127L2.92796 9.425L0.353732 6.85337L0.678704 6.52873L0.65 6.5L0.678704 6.47127L0.353733 6.14663L1.62665 4.875L1.98002 5.22873L3.932 3.27873L3.57862 2.925L6.15285 0.353374L6.21212 0.412705L6.24053 0.384331L6.47761 0.621653L6.44921 0.650027L6.80483 1.00601L7.15856 0.652637L7.63273 1.12728L7.63259 1.12742L7.33782 0.833678L7.07308 1.09935L7.36725 1.39249L7.27899 1.48066L7.33826 1.53999L7.42665 1.45168ZM7.63273 11.8727L7.39564 12.11L7.39497 12.1094L7.63259 11.8726L7.63273 11.8727ZM18.3673 1.12728L18.8414 0.652637L19.1952 1.00601L19.5508 0.650027L19.5224 0.621652L19.7595 0.38433L19.7879 0.412705L19.8471 0.353374L22.4214 2.925L22.068 3.27873L24.02 5.22873L24.3734 4.875L25.6463 6.14663L25.3213 6.47127L25.35 6.5L25.3213 6.52873L25.6463 6.85337L23.072 9.425L22.7187 9.07127L20.7667 11.0213L21.1201 11.375L19.8471 12.6466L19.7879 12.5873L19.7595 12.6157L19.4654 12.3213L19.14 12.6463L18.96 12.466L19.3137 12.1126L18.9581 11.7567L18.8704 11.8443L18.6327 11.6075L18.721 11.5193L18.6617 11.46L18.5733 11.5483L18.5727 11.5477L20.6907 9.42236L21.0448 9.7753L22.6333 8.18128L22.2791 7.82835L23.3381 6.76567L23.6923 7.1186L23.957 6.85293L24.3087 6.5L23.957 6.14707L23.6923 5.8814L23.3381 6.23433L21.2202 4.10898L21.5743 3.75604L19.9859 2.16202L19.6317 2.51496L18.5727 1.45228L18.5733 1.45168L18.6617 1.53999L18.721 1.48066L18.6327 1.39249L18.9269 1.09935L18.6622 0.833678L18.3674 1.12742L18.3673 1.12728ZM18.605 12.1094L18.6044 12.11L18.3673 11.8727L18.3674 11.8726L18.605 12.1094ZM7.92301 5.312L7.93263 5.31237H7.94225L7.96717 5.31259L7.97608 4.81267C8.06849 4.81432 8.1582 4.82274 8.24519 4.83793L8.15918 5.33048C8.20593 5.33864 8.2509 5.3495 8.29427 5.36295L8.44236 4.88539C8.48552 4.89877 8.52796 4.914 8.56965 4.93106L8.38025 5.3938L8.40128 5.40268L8.42266 5.41221L8.63003 4.95724C8.70897 4.99321 8.78377 5.03401 8.85445 5.07963L8.58331 5.49972C8.6213 5.52425 8.65734 5.55058 8.69154 5.57874L9.00934 5.19273C9.04225 5.21982 9.07408 5.24818 9.10484 5.2778L8.75801 5.63794L8.77393 5.65358L8.79001 5.67L9.15067 5.3237C9.21073 5.38624 9.26636 5.45395 9.31756 5.52683L8.90845 5.81428C8.93537 5.85259 8.96106 5.89353 8.98543 5.9373L9.42226 5.69402C9.44333 5.73186 9.46342 5.77083 9.48253 5.81096L9.03112 6.02597L9.04184 6.04892L9.05119 6.06995L9.51025 5.87178C9.54671 5.95625 9.57479 6.04211 9.5945 6.12938L9.10678 6.23952C9.11644 6.28226 9.12298 6.32551 9.12641 6.36946L9.62489 6.33049C9.6284 6.37533 9.6298 6.42053 9.62908 6.46608L9.12914 6.45827L9.12853 6.4808L9.12817 6.4904V6.5L9.12794 6.52497L9.62787 6.53386C9.62622 6.62636 9.61781 6.71615 9.60264 6.80323L9.11006 6.71739C9.1019 6.76424 9.09103 6.80932 9.07758 6.85279L9.55523 7.00059C9.54186 7.04381 9.52665 7.08629 9.5096 7.12803L9.04672 6.93897L9.03784 6.96004L9.02832 6.98145L9.48345 7.18847C9.44752 7.26747 9.40677 7.34234 9.36121 7.41308L8.94086 7.14234C8.91634 7.18039 8.89003 7.21649 8.86189 7.25074L9.24823 7.56814C9.22115 7.60109 9.19282 7.63297 9.16322 7.66376L8.80272 7.31729L8.7871 7.33324L8.77069 7.34934L9.11736 7.70964C9.0549 7.76975 8.98727 7.82542 8.91448 7.87668L8.62662 7.46785C8.58837 7.49478 8.54748 7.52049 8.50378 7.54488L8.74744 7.98149C8.70964 8.00259 8.67069 8.0227 8.6306 8.04184L8.41524 7.5906L8.39231 7.60133L8.37133 7.61068L8.56984 8.06958C8.48547 8.10608 8.39969 8.13419 8.31253 8.15392L8.20216 7.66625C8.15952 7.6759 8.11638 7.68244 8.07255 7.68588L8.11161 8.18435C8.06681 8.18786 8.02165 8.18926 7.97614 8.18855L7.98397 7.68861L7.96149 7.688L7.95187 7.68763H7.94225L7.91733 7.68741L7.90842 8.18733C7.81601 8.18568 7.7263 8.17726 7.63931 8.16207L7.72532 7.66952C7.67857 7.66136 7.6336 7.65049 7.59023 7.63705L7.44214 8.11461C7.39897 8.10123 7.35654 8.086 7.31485 8.06894L7.50424 7.6062L7.48322 7.59732L7.46183 7.58779L7.25447 8.04276C7.17553 8.00679 7.10073 7.96599 7.03005 7.92037L7.30119 7.50028C7.2632 7.47575 7.22716 7.44942 7.19295 7.42126L6.87516 7.80727C6.84225 7.78018 6.81041 7.75182 6.77966 7.7222L7.12649 7.36206L7.11057 7.34642L7.09448 7.33L6.73383 7.6763C6.67377 7.61376 6.61814 7.54605 6.56694 7.47317L6.97604 7.18571C6.94913 7.14741 6.92344 7.10647 6.89906 7.0627L6.46224 7.30597C6.44117 7.26814 6.42108 7.22917 6.40197 7.18904L6.85338 6.97403L6.84266 6.95108L6.83331 6.93005L6.37425 7.12822C6.33779 7.04375 6.3097 6.95789 6.29 6.87062L6.77772 6.76048C6.76806 6.71774 6.76152 6.67448 6.75809 6.63054L6.25961 6.66951C6.2561 6.62467 6.2547 6.57947 6.25541 6.53392L6.75535 6.54173L6.75596 6.5192L6.75633 6.5096V6.5L6.75655 6.47503L6.25663 6.46614C6.25828 6.37364 6.26669 6.28385 6.28186 6.19677L6.77444 6.28261C6.7826 6.23576 6.79347 6.19068 6.80692 6.14721L6.32926 5.99941C6.34264 5.95619 6.35785 5.91371 6.3749 5.87197L6.83778 6.06103L6.84665 6.03996L6.85617 6.01855L6.40104 5.81153C6.43698 5.73253 6.47773 5.65766 6.52329 5.58692L6.94364 5.85766C6.96815 5.81961 6.99447 5.78351 7.02261 5.74926L6.63627 5.43186C6.66335 5.39891 6.69168 5.36703 6.72127 5.33624L7.08178 5.68271L7.0974 5.66676L7.1138 5.65066L6.76713 5.29036C6.8296 5.23025 6.89723 5.17457 6.97002 5.12332L7.25788 5.53215C7.29613 5.50522 7.33702 5.47951 7.38072 5.45512L7.13706 5.01851C7.17486 4.99741 7.21381 4.9773 7.2539 4.95816L7.46926 5.4094L7.49219 5.39867L7.51317 5.38932L7.31466 4.93042C7.39903 4.89392 7.4848 4.86581 7.57197 4.84608L7.68234 5.33375C7.72498 5.3241 7.76812 5.31756 7.81195 5.31412L7.77289 4.81565C7.81769 4.81214 7.86285 4.81074 7.90836 4.81145L7.90053 5.31139L7.92301 5.312ZM12.9808 5.312L12.9904 5.31237H13L13.0249 5.31259L13.0338 4.81267C13.1262 4.81432 13.2159 4.82274 13.3029 4.83793L13.2169 5.33048C13.2637 5.33864 13.3086 5.3495 13.352 5.36295L13.5001 4.88539C13.5433 4.89877 13.5857 4.914 13.6274 4.93106L13.438 5.3938L13.459 5.40268L13.4804 5.41221L13.6878 4.95724C13.7667 4.99321 13.8415 5.03401 13.9122 5.07963L13.6411 5.49972C13.6791 5.52425 13.7151 5.55058 13.7493 5.57874L14.0671 5.19273C14.1 5.21982 14.1318 5.24818 14.1626 5.2778L13.8158 5.63794L13.8317 5.65358L13.8478 5.67L14.2084 5.3237C14.2685 5.38624 14.3241 5.45395 14.3753 5.52683L13.9662 5.81428C13.9931 5.85259 14.0188 5.89353 14.0432 5.9373L14.48 5.69402C14.5011 5.73186 14.5212 5.77083 14.5403 5.81096L14.0889 6.02597L14.0996 6.04892L14.1089 6.06995L14.568 5.87178C14.6045 5.95625 14.6325 6.04211 14.6523 6.12938L14.1645 6.23952C14.1742 6.28226 14.1807 6.32551 14.1842 6.36946L14.6826 6.33049C14.6861 6.37533 14.6875 6.42053 14.6868 6.46608L14.1869 6.45827L14.1863 6.4808L14.1859 6.4904V6.5L14.1857 6.52497L14.6856 6.53386C14.684 6.62636 14.6756 6.71615 14.6604 6.80323L14.1678 6.71739C14.1596 6.76424 14.1488 6.80932 14.1353 6.85279L14.613 7.00059C14.5996 7.04381 14.5844 7.08629 14.5673 7.12803L14.1045 6.93897L14.0956 6.96004L14.0861 6.98145L14.5412 7.18847C14.5053 7.26747 14.4645 7.34234 14.419 7.41308L13.9986 7.14234C13.9741 7.18039 13.9478 7.21649 13.9196 7.25074L14.306 7.56814C14.2789 7.60109 14.2506 7.63297 14.221 7.66376L13.8605 7.31729L13.8448 7.33324L13.8284 7.34934L14.1751 7.70964C14.1126 7.76975 14.045 7.82542 13.9722 7.87668L13.6844 7.46785C13.6461 7.49478 13.6052 7.52049 13.5615 7.54488L13.8052 7.98149C13.7674 8.00259 13.7284 8.0227 13.6884 8.04184L13.473 7.5906L13.4501 7.60133L13.4291 7.61068L13.6276 8.06958C13.5432 8.10608 13.4574 8.13419 13.3703 8.15392L13.2599 7.66625C13.2173 7.6759 13.1741 7.68244 13.1303 7.68588L13.1694 8.18435C13.1246 8.18786 13.0794 8.18926 13.0339 8.18855L13.0417 7.68861L13.0192 7.688L13.0096 7.68763H13L12.9751 7.68741L12.9662 8.18733C12.8738 8.18568 12.7841 8.17726 12.6971 8.16207L12.7831 7.66952C12.7363 7.66136 12.6914 7.65049 12.648 7.63705L12.4999 8.11461C12.4567 8.10123 12.4143 8.086 12.3726 8.06894L12.562 7.6062L12.541 7.59732L12.5196 7.58779L12.3122 8.04276C12.2333 8.00679 12.1585 7.96599 12.0878 7.92037L12.3589 7.50028C12.3209 7.47575 12.2849 7.44942 12.2507 7.42126L11.9329 7.80727C11.9 7.78018 11.8682 7.75182 11.8374 7.7222L12.1842 7.36206L12.1683 7.34642L12.1522 7.33L11.7916 7.6763C11.7315 7.61376 11.6759 7.54605 11.6247 7.47317L12.0338 7.18571C12.0069 7.14741 11.9812 7.10647 11.9568 7.0627L11.52 7.30598C11.4989 7.26814 11.4788 7.22917 11.4597 7.18904L11.9111 6.97403L11.9004 6.95108L11.8911 6.93005L11.432 7.12822C11.3955 7.04375 11.3675 6.95789 11.3477 6.87062L11.8355 6.76048C11.8258 6.71774 11.8193 6.67448 11.8158 6.63054L11.3174 6.66951C11.3139 6.62467 11.3125 6.57947 11.3132 6.53392L11.8131 6.54173L11.8137 6.5192L11.8141 6.5096V6.5L11.8143 6.47503L11.3144 6.46614C11.316 6.37364 11.3244 6.28385 11.3396 6.19677L11.8322 6.28261C11.8404 6.23576 11.8512 6.19068 11.8647 6.14721L11.387 5.99941C11.4004 5.95619 11.4156 5.91371 11.4327 5.87197L11.8955 6.06103L11.9044 6.03996L11.9139 6.01855L11.4588 5.81153C11.4947 5.73253 11.5355 5.65766 11.581 5.58692L12.0014 5.85766C12.0259 5.81961 12.0522 5.78351 12.0804 5.74926L11.694 5.43186C11.7211 5.39891 11.7494 5.36703 11.779 5.33624L12.1395 5.68271L12.1552 5.66676L12.1716 5.65066L11.8249 5.29036C11.8874 5.23025 11.955 5.17457 12.0278 5.12332L12.3156 5.53215C12.3539 5.50522 12.3948 5.47951 12.4385 5.45512L12.1948 5.01851C12.2326 4.99741 12.2716 4.9773 12.3116 4.95816L12.527 5.4094L12.5499 5.39867L12.5709 5.38932L12.3724 4.93042C12.4568 4.89392 12.5426 4.86581 12.6297 4.84608L12.7401 5.33375C12.7827 5.3241 12.8259 5.31756 12.8697 5.31412L12.8306 4.81565C12.8754 4.81214 12.9206 4.81074 12.9661 4.81145L12.9583 5.31139L12.9808 5.312ZM19.244 6.4808L19.2437 6.4904V6.5L19.2434 6.52497L19.7434 6.53386C19.7417 6.62636 19.7333 6.71615 19.7181 6.80323L19.2256 6.71739C19.2174 6.76424 19.2065 6.80932 19.1931 6.85279L19.6707 7.00059C19.6574 7.04381 19.6422 7.08629 19.6251 7.12803L19.1622 6.93897L19.1533 6.96004L19.1438 6.98145L19.599 7.18847C19.563 7.26747 19.5223 7.34234 19.4767 7.41308L19.0564 7.14234C19.0318 7.18039 19.0055 7.21649 18.9774 7.25074L19.3637 7.56814C19.3367 7.60109 19.3083 7.63297 19.2787 7.66376L18.9182 7.31729L18.9026 7.33324L18.8862 7.34934L19.2329 7.70964C19.1704 7.76975 19.1028 7.82542 19.03 7.87668L18.7421 7.46785C18.7039 7.49478 18.663 7.52049 18.6193 7.54488L18.8629 7.98149C18.8251 8.00259 18.7862 8.0227 18.7461 8.04184L18.5307 7.5906L18.5078 7.60133L18.4868 7.61068L18.6853 8.06958C18.601 8.10608 18.5152 8.13419 18.428 8.15392L18.3177 7.66625C18.275 7.6759 18.2319 7.68244 18.1881 7.68588L18.2271 8.18435C18.1823 8.18786 18.1371 8.18926 18.0916 8.18855L18.0995 7.68861L18.077 7.688L18.0674 7.68763H18.0578L18.0328 7.68741L18.0239 8.18733C17.9315 8.18568 17.8418 8.17726 17.7548 8.16207L17.8408 7.66952C17.7941 7.66136 17.7491 7.65049 17.7057 7.63705L17.5576 8.11461C17.5145 8.10123 17.472 8.086 17.4303 8.06894L17.6197 7.6062L17.5987 7.59732L17.5773 7.58779L17.37 8.04276C17.291 8.00679 17.2162 7.96599 17.1455 7.92037L17.4167 7.50028C17.3787 7.47575 17.3427 7.44942 17.3085 7.42126L16.9907 7.80727C16.9577 7.78018 16.9259 7.75182 16.8952 7.7222L17.242 7.36206L17.2261 7.34642L17.21 7.33L16.8493 7.6763C16.7893 7.61376 16.7336 7.54605 16.6824 7.47317L17.0915 7.18571C17.0646 7.14741 17.0389 7.10647 17.0146 7.0627L16.5777 7.30597C16.5567 7.26814 16.5366 7.22917 16.5175 7.18904L16.9689 6.97403L16.9582 6.95108L16.9488 6.93005L16.4898 7.12822C16.4533 7.04375 16.4252 6.95789 16.4055 6.87062L16.8932 6.76048C16.8836 6.71774 16.877 6.67448 16.8736 6.63054L16.3751 6.66951C16.3716 6.62467 16.3702 6.57947 16.3709 6.53392L16.8709 6.54173L16.8715 6.5192L16.8718 6.5096V6.5L16.8721 6.47503L16.3721 6.46614C16.3738 6.37364 16.3822 6.28385 16.3974 6.19677L16.8899 6.28261C16.8981 6.23576 16.909 6.19068 16.9224 6.14721L16.4448 5.99941C16.4581 5.95619 16.4734 5.91371 16.4904 5.87197L16.9533 6.06103L16.9622 6.03996L16.9717 6.01855L16.5165 5.81153C16.5525 5.73253 16.5932 5.65766 16.6388 5.58692L17.0591 5.85766C17.0837 5.81961 17.11 5.78351 17.1381 5.74926L16.7518 5.43186C16.7788 5.39891 16.8072 5.36703 16.8368 5.33624L17.1973 5.68271L17.2129 5.66676L17.2293 5.65066L16.8826 5.29036C16.9451 5.23025 17.0127 5.17457 17.0855 5.12332L17.3734 5.53215C17.4116 5.50522 17.4525 5.47951 17.4962 5.45512L17.2526 5.01851C17.2904 4.99741 17.3293 4.97729 17.3694 4.95816L17.5848 5.4094L17.6077 5.39867L17.6287 5.38932L17.4302 4.93042C17.5145 4.89392 17.6003 4.86581 17.6875 4.84608L17.7978 5.33375C17.8405 5.3241 17.8836 5.31756 17.9274 5.31412L17.8884 4.81565C17.9332 4.81214 17.9784 4.81074 18.0239 4.81145L18.016 5.31139L18.0385 5.312L18.0481 5.31237H18.0578L18.0827 5.31259L18.0916 4.81267C18.184 4.81432 18.2737 4.82274 18.3607 4.83793L18.2747 5.33048C18.3214 5.33864 18.3664 5.3495 18.4098 5.36295L18.5579 4.88539C18.601 4.89877 18.6435 4.914 18.6852 4.93106L18.4958 5.3938L18.5168 5.40268L18.5382 5.41221L18.7455 4.95724C18.8245 4.99321 18.8993 5.03401 18.97 5.07963L18.6988 5.49972C18.7368 5.52425 18.7728 5.55058 18.807 5.57874L19.1248 5.19273C19.1578 5.21982 19.1896 5.24818 19.2203 5.2778L18.8735 5.63794L18.8894 5.65358L18.9055 5.67L19.2662 5.3237C19.3262 5.38624 19.3819 5.45395 19.4331 5.52683L19.024 5.81428C19.0509 5.85259 19.0766 5.89353 19.1009 5.9373L19.5378 5.69402C19.5588 5.73186 19.5789 5.77083 19.598 5.81096L19.1466 6.02597L19.1573 6.04892L19.1667 6.06995L19.6257 5.87178C19.6622 5.95625 19.6903 6.04211 19.71 6.12938L19.2223 6.23952C19.2319 6.28226 19.2385 6.32551 19.2419 6.36946L19.7404 6.33049C19.7439 6.37533 19.7453 6.42053 19.7446 6.46608L19.2446 6.45827L19.244 6.4808Z" fill="url(#paint0_linear)" stroke="url(#paint1_linear)" stroke-dasharray="2 4 6 8"/>
<defs>
<linearGradient id="paint0_linear" x1="12.9518" y1="0.00451814" x2="12.9518" y2="12.9535" gradientUnits="userSpaceOnUse">
<stop stop-color="#32D4F5"/>
<stop offset="0.177083" stop-color="#31D0F1"/>
<stop offset="0.333333" stop-color="#2CC3E6"/>
<stop offset="0.494792" stop-color="#25AFD4"/>
<stop offset="0.8125" stop-color="#1C92BA"/>
<stop offset="1" stop-color="#198AB3"/>
</linearGradient>
<linearGradient id="paint1_linear" x1="12.9518" y1="0.00451814" x2="12.9518" y2="12.9535" gradientUnits="userSpaceOnUse">
<stop stop-color="#32D4F5"/>
<stop offset="0.177083" stop-color="#31D0F1"/>
<stop offset="0.333333" stop-color="#2CC3E6"/>
<stop offset="0.494792" stop-color="#25AFD4"/>
<stop offset="0.8125" stop-color="#1C92BA"/>
<stop offset="1" stop-color="#198AB3"/>
</linearGradient>
</defs>
</svg>
